%FSLAX23Y23*%
%MOIN*%
%AD*%
%ADD10C, 0.005*%
%ADD11C, 0.008*%
%ADD12C, 0.010*%
%ADD13C, 0.015*%
%ADD14C, 0.035*%
%ADD15R, 0.035X0.100*%
%ADD16R, 0.035X0.100*%
%ADD17R, 0.050X0.200*%
%ADD18R, 0.050X0.200*%
%ADD19C, 0.060*%
%ADD70R, 0.100X0.035*%
%ADD71R, 0.200X0.050*%
%ADD20R, 0.800X0.900*%
G54D15*
G1X01900Y01049D3*
G1X01900Y01450D3*
G1X01750Y00250D3*
G54D16*
G1X01303Y00650D3*
G1X01403Y00650D3*
G1X01503Y00650D3*
G1X01603Y00650D3*
G1X01603Y00250D3*
G1X01503Y00250D3*
G1X01403Y00250D3*
G1X01303Y00250D3*
G1X01405Y01450D3*
G1X01405Y01050D3*
G1X01505Y01450D3*
G1X01505Y01050D3*
G1X01605Y01450D3*
G1X01605Y01050D3*
G1X01100Y00650D3*
G1X01100Y00250D3*
G1X02250Y01450D3*
G1X02250Y01050D3*
G1X01750Y00550D3*
G1X02100Y00650D3*
G1X02100Y00250D3*
G54D17*
G1X02801Y01249D3*
G1X02801Y00649D3*
G54D18*
G1X00600Y00299D3*
G1X00500Y00299D3*
G1X00400Y00299D3*
G54D70*
G1X03449Y00800D3*
G1X03850Y00800D3*
G1X03449Y01050D3*
G1X03850Y01050D3*
G1X03449Y01150D3*
G1X03850Y01150D3*
G1X01299Y00850D3*
G1X01700Y00850D3*
G54D71*
G1X02501Y00949D3*
G1X03101Y00949D3*
G54D20*
G1X00500Y00999D3*
G54D13*
G1X02862Y01084D2*
G1X02849Y01076D1*
G1X02824Y01076D1*
G1X02812Y01084D1*
G1X02812Y01114D1*
G1X02824Y01121D1*
G1X02849Y01121D1*
G1X02862Y01114D1*
G1X02862Y01114D2*
G1X02792Y01099D2*
G1X02742Y01099D1*
G1X02742Y01099D2*
G1X02742Y01121D2*
G1X02742Y01084D1*
G1X02754Y01076D1*
G1X02779Y01076D1*
G1X02792Y01084D1*
G1X02792Y01121D1*
G1X02792Y01121D2*
G1X02862Y00782D2*
G1X02849Y00774D1*
G1X02824Y00774D1*
G1X02812Y00782D1*
G1X02812Y00812D1*
G1X02824Y00819D1*
G1X02849Y00819D1*
G1X02862Y00812D1*
G1X02862Y00812D2*
G1X02792Y00797D2*
G1X02742Y00797D1*
G1X02742Y00797D2*
G1X02742Y00819D2*
G1X02742Y00782D1*
G1X02754Y00774D1*
G1X02779Y00774D1*
G1X02792Y00782D1*
G1X02792Y00819D1*
G1X02792Y00819D2*
G1X02926Y00949D2*
G1X02976Y00949D1*
G1X02976Y00949D2*
G1X02951Y00934D2*
G1X02951Y00964D1*
G1X02951Y00964D2*
G1X02626Y00953D2*
G1X02676Y00953D1*
G1X02676Y00953D2*
G54D14*
G1X00500Y00200D2*
G1X00500Y00600D1*
G1X00500Y00550D1*
G1X00500Y00550D2*
G1X01100Y00200D2*
G1X01100Y00100D1*
G1X00400Y00100D1*
G1X00400Y00200D1*
G1X00400Y00200D2*
G1X02401Y00949D2*
G1X02550Y00950D1*
G1X02550Y00550D1*
G1X02700Y00400D1*
G1X03450Y00400D1*
G1X03750Y00800D1*
G1X03900Y00800D1*
G1X03900Y00800D2*
G1X01503Y00200D2*
G1X01500Y00400D1*
G1X01850Y00400D1*
G1X01900Y00450D1*
G1X01900Y00750D1*
G1X01750Y00850D1*
G1X01750Y00850D2*
G1X01250Y00850D2*
G1X01250Y00700D1*
G1X01303Y00700D1*
G1X01303Y00700D2*
G1X01603Y00700D2*
G1X01750Y00700D1*
G1X01750Y00550D1*
G1X01750Y00550D2*
G1X01750Y00250D2*
G1X01750Y00100D1*
G1X01300Y00100D1*
G1X01303Y00200D1*
G1X01303Y00200D2*
G1X01605Y01000D2*
G1X01505Y01000D1*
G1X01505Y01000D2*
G1X01405Y01500D2*
G1X01400Y01250D1*
G1X01500Y01150D1*
G1X01505Y01000D1*
G1X01505Y01000D2*
G1X01100Y00700D2*
G1X01100Y01550D1*
G1X01200Y01650D1*
G1X01600Y01650D1*
G1X01900Y01400D1*
G1X01900Y01500D1*
G1X01900Y01500D2*
G1X00900Y00700D2*
G1X00500Y00550D1*
G1X00500Y00550D2*
G1X01900Y01500D2*
G1X01900Y01400D1*
G1X02100Y01250D1*
G1X02100Y00700D1*
G1X02100Y00700D2*
G1X01303Y00700D2*
G1X01100Y00700D1*
G1X01100Y00700D2*
G1X01303Y00200D2*
G1X01100Y00200D1*
G1X01100Y00200D2*
G1X01403Y00700D2*
G1X01402Y00550D1*
G1X01502Y00400D1*
G1X01503Y00200D1*
G1X01503Y00200D2*
G1X03900Y00800D2*
G1X03750Y00800D1*
G1X03550Y01150D1*
G1X03400Y01150D1*
G1X03400Y01150D2*
G1X03900Y01050D2*
G1X03900Y01150D1*
G1X03900Y01150D2*
G1X03400Y00800D2*
G1X03400Y01050D1*
G1X03400Y01050D2*
G1X03201Y00949D2*
G1X03050Y00950D1*
G1X03050Y00800D1*
G1X03400Y00800D1*
G1X03400Y00800D2*
G1X02250Y01500D2*
G1X02250Y01350D1*
G1X02600Y01350D1*
G1X02800Y01200D1*
G1X02801Y01349D1*
G1X02801Y01349D2*
G1X01605Y01500D2*
G1X01600Y01350D1*
G1X01900Y01150D1*
G1X01900Y01000D1*
G1X01900Y01000D2*
G1X01505Y01500D2*
G1X01500Y01350D1*
G1X01700Y01150D1*
G1X01700Y00950D1*
G1X01600Y00900D1*
G1X01603Y00700D1*
G1X01603Y00700D2*
G1X01505Y01000D2*
G1X01503Y00700D1*
G1X01503Y00700D2*
G1X01403Y00700D2*
G1X01403Y01047D1*
G1X01405Y01000D1*
G1X01405Y01000D2*
G1X02250Y01000D2*
G1X02250Y01200D1*
G1X02500Y01200D1*
G1X02750Y01000D1*
G1X02750Y00900D1*
G1X02650Y00850D1*
G1X02650Y00700D1*
G1X02800Y00700D1*
G1X02801Y00549D1*
G1X02801Y00549D2*
G54D19*
G1X01100Y00700D2*
G1X00900Y00700D1*
G1X00900Y00700D2*
M2*
