%FSLAX42Y42*%
%MOMM*%
G71*
G01*
G75*
%ADD10R,1.52X1.27*%
%ADD11R,1.27X1.52*%
%ADD12C,0.20*%
%ADD13C,0.50*%
%ADD14C,2.00*%
%ADD15R,2.00X2.00*%
D10*
X43188Y32000D02*
D03*
X43416D02*
D03*
X43766D02*
D03*
X43995D02*
D03*
Y33500D02*
D03*
X43766D02*
D03*
X43416D02*
D03*
X43188D02*
D03*
D11*
X44316Y32321D02*
D03*
Y32550D02*
D03*
Y32921D02*
D03*
Y33150D02*
D03*
X46316Y32850D02*
D03*
Y32621D02*
D03*
D12*
X42496Y31680D02*
Y33820D01*
X46886D01*
Y31680D01*
X42496D01*
X42822Y32590D02*
X42666Y32746D01*
X42830Y32910D01*
X43180D01*
X43320Y33050D01*
X43662D01*
Y32450D01*
X43320D01*
X43180Y32590D01*
X42822D01*
X44316Y32670D02*
X44426D01*
Y32190D01*
X44866Y31750D01*
X46766D01*
X46816Y31800D01*
Y32292D01*
X46716Y32392D01*
X46456Y32132D01*
Y31940D01*
X46376Y31860D01*
X46256D01*
X46176Y31940D01*
Y33640D01*
X46066Y33750D01*
X44896D01*
X44426Y33280D01*
Y32800D01*
X44316D01*
D13*
X42666Y32492D02*
X43024D01*
X43066Y32450D01*
X43026Y32410D01*
Y32040D01*
X43066Y32000D01*
X43188D01*
X43416D02*
X43766D01*
X43586D02*
Y32120D01*
X43916Y32450D01*
X43995Y32000D02*
X44316D01*
Y32321D01*
X44316Y32550D02*
Y32921D01*
X44316Y33150D02*
Y33500D01*
X43995D01*
X43916Y33050D02*
X43586Y33380D01*
Y33500D01*
X43766D02*
X43416D01*
X43188D02*
X43066D01*
X43026Y33460D01*
Y33090D01*
X43066Y33050D01*
X43016Y33000D01*
X42666D01*
X46316Y32000D02*
Y32621D01*
Y32850D02*
Y33500D01*
Y33020D02*
X46596D01*
X46716Y32900D01*
Y32646D02*
X46622D01*
X46436Y32460D01*
X46316D01*
D14*
X42666Y32492D02*
D03*
X43066Y32450D02*
D03*
X43320Y32450D02*
D03*
X43662D02*
D03*
X43916D02*
D03*
X44316Y32000D02*
D03*
X43916Y33050D02*
D03*
X44316Y33500D02*
D03*
X43662Y33050D02*
D03*
X43320D02*
D03*
X43066D02*
D03*
X42666Y32746D02*
D03*
X46316Y32000D02*
D03*
X46716Y32392D02*
D03*
Y32646D02*
D03*
X46316Y33500D02*
D03*
D15*
X42666Y33000D02*
D03*
X46716Y32900D02*
D03*
M02*
