G04 DipTrace 1.21*
%INpttest.gbr*%
%MOIN*%
%ADD10C,0.0197*%
%ADD11C,0.0098*%
%ADD12R,0.0906X0.0906X0.046*%
%ADD13R,0.0591X0.0591X0.0354*%
%ADD14C,0.0591*%
%ADD15R,0.06X0.06X0.038*%
%ADD16C,0.06*%
%ADD17R,0.08X0.08X0.035*%
%ADD18R,0.0689X0.0689X0.035*%
%ADD19C,0.1969*%
%ADD20C,0.07*%
%ADD21R,0.0039X0.0039*%
%FSLAX44Y44*%
%SFA1B1*%
%OFA0B0*%
G04*
G70*
G90*
G75*
G01*
%LNDraw0*%
X28500Y5295D2*
D10*
X28311Y5106D1*
X25500D1*
Y5295D1*
X28500Y6295D2*
Y6681D1*
X26352D1*
Y7469D1*
X25500D1*
Y7295D1*
X28500Y8295D2*
X25500D1*
X28500Y9295D2*
X28358Y9437D1*
X25500D1*
Y9295D1*
X28000Y11795D2*
Y10224D1*
X25571D1*
X25500Y10295D1*
Y11295D2*
X25610Y11406D1*
X26745D1*
Y12335D1*
Y14019D2*
X31864D1*
Y11015D1*
X32880D1*
X22500Y8295D2*
X23990D1*
Y13374D1*
X31470D1*
Y9925D1*
X32880D1*
X24000Y2795D2*
Y5894D1*
X24777D1*
Y6295D1*
X25500D1*
X14000Y26795D2*
X9000D1*
X14000Y25795D2*
X13823Y25972D1*
X9000D1*
Y25795D1*
X14000Y24795D2*
X9000D1*
X14000Y22795D2*
Y22898D1*
X9000D1*
Y22795D1*
X14000Y23795D2*
X13815Y23610D1*
X9000D1*
Y23795D1*
X8512Y28795D2*
X8635Y28672D1*
Y27547D1*
X7848D1*
Y24004D1*
X8791D1*
X9000Y23795D1*
X3787Y28795D2*
X3911Y28672D1*
Y26795D1*
X3000D1*
X14000Y27795D2*
X14146Y27941D1*
X14934D1*
Y29909D1*
X3787D1*
Y28795D1*
X14000Y18795D2*
X12572D1*
Y20979D1*
Y22261D2*
X9816D1*
Y21642D1*
X9000D1*
Y21795D1*
X14000Y17795D2*
X11391D1*
Y17145D1*
X10404D1*
Y18886D2*
Y20680D1*
X9000D1*
Y20795D1*
X14000Y16795D2*
X12500D1*
Y6554D2*
X7454D1*
Y19795D2*
X9000D1*
X14000Y15795D2*
Y15644D1*
X9733D1*
Y16917D1*
X9000D1*
Y16795D1*
X19500Y23232D2*
X18084D1*
Y22051D1*
X17256D1*
X17000Y21795D1*
X29000Y11795D2*
X29108D1*
Y9043D1*
X31864D1*
Y7862D1*
X32763D1*
X32880Y7745D1*
X22500Y6295D2*
X24383D1*
Y12980D1*
X29108D1*
Y11795D1*
X29000D1*
X20000Y6295D2*
X18478D1*
Y4938D1*
Y3648D2*
X21234D1*
Y4487D1*
X21459Y6295D2*
X22500D1*
X17000Y19795D2*
X16878Y19673D1*
X15722D1*
Y6287D1*
X18478D1*
Y4938D1*
X19500Y21657D2*
X18084D1*
Y20067D1*
X17272D1*
X17000Y19795D1*
X14000Y21795D2*
X14154Y21642D1*
X15722D1*
Y6287D1*
X9000Y17795D2*
X11023D1*
Y21625D1*
X13829D1*
X14000Y21795D1*
X3000Y15795D2*
X7848D1*
Y17795D1*
X9000D1*
X4575Y28795D2*
X4698Y28672D1*
Y21642D1*
X3154D1*
X3000Y21795D1*
X9299Y28795D2*
X14000D1*
Y20795D2*
X15328D1*
Y5909D1*
X4367D1*
Y6653D1*
Y14795D2*
X3000D1*
X14000Y19795D2*
X14122Y19673D1*
X14934D1*
Y7199D1*
X3911D1*
Y13795D1*
X3000D1*
X23000Y2795D2*
X22808Y2987D1*
Y4987D1*
X22500Y5295D1*
X20000D2*
Y5132D1*
X22500D1*
Y5295D1*
X19500Y20870D2*
X20814D1*
Y5132D1*
X22500D1*
X19500Y26382D2*
X20446D1*
Y20870D1*
X20814D1*
X17000Y20795D2*
X16941Y20854D1*
X16115D1*
Y29516D1*
X18871D1*
Y26382D1*
X19500D1*
X3000Y16795D2*
X2728Y16524D1*
X1942D1*
Y4293D1*
X20000D1*
Y5295D1*
X9000Y18795D2*
X3911D1*
Y16917D1*
X3122D1*
X3000Y16795D1*
X19500Y19295D2*
X18871D1*
Y14949D1*
X16115D1*
Y18886D1*
X16909D1*
X17000Y18795D1*
X19500Y20083D2*
X18478D1*
Y18098D1*
X17303D1*
X17000Y17795D1*
X19500Y24020D2*
X17224D1*
X17000Y23795D1*
D20*
X26745Y12335D3*
Y14019D3*
X12572Y20979D3*
Y22261D3*
X10404Y17145D3*
Y18886D3*
X12500Y16795D3*
Y6554D3*
X7454D3*
Y19795D3*
X18478Y4938D3*
Y3648D3*
X21234Y4487D3*
X21459Y6295D3*
X4367Y6653D3*
Y14795D3*
D12*
X34000Y8295D3*
Y9385D3*
Y10475D3*
Y11565D3*
X32880Y7745D3*
Y8835D3*
Y9925D3*
Y11015D3*
Y12105D3*
D13*
X25500Y5295D3*
D14*
Y6295D3*
Y7295D3*
Y8295D3*
Y9295D3*
Y10295D3*
Y11295D3*
Y12295D3*
X22500Y5295D3*
Y6295D3*
Y7295D3*
Y8295D3*
Y9295D3*
Y10295D3*
Y11295D3*
Y12295D3*
D15*
X28500Y5295D3*
D16*
Y6295D3*
D15*
Y8295D3*
D16*
Y9295D3*
D15*
X29000Y11795D3*
D16*
X28000D3*
D15*
X24000Y2795D3*
D16*
X23000D3*
D15*
X20000Y5295D3*
D16*
Y6295D3*
D17*
X3000Y26795D3*
Y25795D3*
Y24795D3*
Y23795D3*
Y22795D3*
Y21795D3*
Y20795D3*
Y19795D3*
Y18795D3*
Y17795D3*
Y16795D3*
Y15795D3*
Y14795D3*
Y13795D3*
Y12795D3*
Y11795D3*
Y10795D3*
Y9795D3*
Y8795D3*
Y7795D3*
X9000Y26795D3*
Y25795D3*
Y24795D3*
Y23795D3*
Y22795D3*
Y21795D3*
Y20795D3*
Y19795D3*
Y18795D3*
Y17795D3*
Y16795D3*
Y15795D3*
Y14795D3*
Y13795D3*
Y12795D3*
Y11795D3*
Y10795D3*
Y9795D3*
Y8795D3*
Y7795D3*
X14000Y28795D3*
Y27795D3*
Y26795D3*
Y25795D3*
Y24795D3*
Y23795D3*
Y22795D3*
Y21795D3*
Y20795D3*
Y19795D3*
Y18795D3*
Y17795D3*
Y16795D3*
Y15795D3*
X17000D3*
Y16795D3*
Y17795D3*
Y18795D3*
Y19795D3*
Y20795D3*
Y21795D3*
Y22795D3*
Y23795D3*
Y24795D3*
Y25795D3*
Y26795D3*
Y27795D3*
Y28795D3*
D18*
X3000D3*
X3787D3*
X4575D3*
X5362D3*
X6150D3*
X6937D3*
X7724D3*
X8512D3*
X9299D3*
X19500Y19295D3*
Y20083D3*
Y20870D3*
Y21657D3*
Y22445D3*
Y23232D3*
Y24020D3*
Y24807D3*
Y25594D3*
Y26382D3*
D19*
X1000Y1795D3*
D18*
X1787D3*
X2575D3*
X3362D3*
X4150D3*
X4937D3*
X5724D3*
X6512D3*
X7299D3*
M02*
